<svg id="svg" xmlns="http://www.w3.org/2000/svg" xmlns:xlink="http://www.w3.org/1999/xlink" width="400" height="400" viewBox="0, 0, 400,400"><g id="svgg"><path id="path0" d="M184.667 4.028 C 178.819 4.409,171.745 5.256,160.889 6.876 C 154.942 7.764,147.242 9.668,139.333 12.207 C 131.970 14.571,132.355 14.540,129.054 13.023 C 119.924 8.828,109.749 15.757,110.303 25.792 C 111.052 39.396,129.197 43.220,135.353 31.072 C 135.953 29.887,136.444 28.623,136.444 28.262 C 136.444 27.112,153.328 22.036,160.889 20.912 C 162.478 20.676,167.178 19.978,171.333 19.360 C 183.782 17.508,203.498 17.085,214.137 18.441 C 229.147 20.354,239.710 22.500,249.111 25.545 C 252.289 26.574,255.430 27.549,256.092 27.712 C 256.753 27.874,257.789 28.195,258.395 28.425 L 259.495 28.844 256.414 35.814 C 254.720 39.648,253.102 43.558,252.819 44.504 C 252.535 45.449,252.211 46.222,252.097 46.222 C 251.984 46.222,249.166 45.334,245.834 44.247 C 240.538 42.520,230.786 40.131,223.111 38.679 C 182.054 30.914,133.511 42.503,99.149 68.275 C 79.780 82.802,65.480 99.023,52.945 120.687 C 50.959 124.121,49.333 127.066,49.333 127.233 C 49.333 127.400,48.031 130.349,46.440 133.788 C 39.677 148.399,34.621 167.753,33.083 184.908 C 32.800 188.071,32.700 188.315,31.319 189.220 C 23.329 194.458,24.430 207.361,33.248 211.829 C 46.737 218.664,59.099 200.981,48.347 190.230 L 46.528 188.411 47.055 184.094 C 48.610 171.359,50.015 164.559,52.950 155.556 C 55.243 148.522,54.673 148.851,60.287 151.310 C 62.920 152.463,65.963 153.709,67.048 154.077 C 68.133 154.445,72.403 156.229,76.536 158.040 C 85.429 161.937,84.893 161.870,85.962 159.221 C 87.600 155.160,92.346 145.091,93.660 142.889 C 99.595 132.940,104.295 126.632,111.245 119.288 C 118.454 111.671,130.138 102.479,138.083 98.176 C 161.614 85.429,182.194 81.275,209.437 83.774 C 239.988 86.577,270.842 104.476,290.270 130.667 C 316.778 166.402,320.390 216.183,299.291 254.982 C 296.767 259.622,296.887 259.577,293.877 257.004 C 292.478 255.809,289.833 253.686,288.000 252.286 C 286.167 250.886,282.367 247.935,279.556 245.728 C 276.744 243.521,272.466 240.179,270.049 238.302 C 267.631 236.425,264.108 233.689,262.219 232.222 C 260.331 230.756,256.209 227.528,253.059 225.051 C 238.876 213.891,235.317 211.134,235.081 211.123 C 234.942 211.116,230.537 215.461,225.293 220.778 C 213.994 232.231,213.281 233.334,212.978 239.810 C 212.702 245.710,213.816 248.227,220.188 256.107 C 221.392 257.595,223.392 260.146,224.633 261.774 C 225.874 263.403,230.689 269.577,235.333 275.493 C 251.488 296.072,255.227 300.926,255.043 301.080 C 251.295 304.217,230.955 312.234,221.215 314.414 C 202.104 318.692,175.611 317.251,158.929 311.028 C 156.951 310.291,154.133 309.292,152.667 308.809 C 141.534 305.145,123.220 292.914,112.233 281.806 C 110.283 279.835,108.481 278.222,108.229 278.222 C 107.977 278.222,102.697 283.300,96.494 289.506 L 85.217 300.790 81.596 296.506 C 75.378 289.148,72.276 284.711,65.245 273.111 C 62.469 268.531,62.400 268.184,63.577 264.701 C 69.095 248.364,46.904 238.946,39.071 254.300 C 35.513 261.276,40.026 270.891,47.848 272.998 C 49.504 273.444,49.880 273.822,51.470 276.637 C 58.343 288.807,62.897 295.501,70.579 304.730 L 75.441 310.570 68.881 317.119 C 65.270 320.724,62.107 323.537,61.846 323.376 C 60.918 322.802,50.775 310.363,47.339 305.585 C 40.319 295.823,30.511 278.210,27.400 269.778 C 26.814 268.189,25.398 264.489,24.253 261.556 C 12.427 231.246,10.224 185.686,19.119 155.333 C 19.620 153.622,20.410 150.622,20.875 148.667 C 21.339 146.711,22.756 142.411,24.025 139.111 C 25.293 135.811,26.811 131.811,27.399 130.222 C 28.894 126.177,35.238 113.451,38.145 108.667 C 39.482 106.467,41.232 103.567,42.033 102.222 C 44.342 98.351,50.516 89.903,55.065 84.392 L 59.242 79.333 61.735 79.478 C 71.569 80.051,78.600 69.346,74.189 60.518 C 70.029 52.193,59.874 50.409,52.837 56.767 C 49.990 59.338,49.193 61.324,49.094 66.087 L 49.009 70.175 46.258 73.363 C 22.184 101.265,5.989 138.237,0.814 177.111 C -0.009 183.290,-0.009 216.710,0.814 222.889 C 8.843 283.198,41.444 334.233,92.667 366.679 C 102.184 372.708,126.257 384.314,131.916 385.602 C 132.573 385.752,135.911 386.743,139.333 387.805 C 147.527 390.349,155.541 392.351,159.605 392.870 C 161.411 393.101,164.789 393.592,167.111 393.962 C 183.971 396.647,203.306 396.911,219.645 394.681 C 223.140 394.204,227.700 393.581,229.778 393.296 C 252.105 390.241,281.000 378.610,304.658 363.156 C 305.631 362.520,306.650 361.858,306.922 361.684 C 307.219 361.493,309.170 363.429,311.819 366.542 C 314.241 369.388,317.822 373.560,319.778 375.813 C 321.733 378.066,324.929 381.779,326.880 384.066 C 337.347 396.332,343.230 398.656,353.006 394.391 C 355.794 393.174,400.000 350.100,400.000 348.600 C 400.000 348.308,398.850 347.107,397.444 345.932 C 396.039 344.757,393.389 342.482,391.556 340.877 C 389.722 339.271,387.503 337.367,386.623 336.645 C 385.744 335.924,382.021 332.733,378.352 329.556 C 374.682 326.378,368.553 321.111,364.732 317.852 C 360.911 314.593,357.677 311.751,357.544 311.537 C 357.412 311.323,358.884 308.790,360.817 305.907 C 407.502 236.268,401.612 140.988,346.516 74.543 L 342.912 70.197 343.050 66.890 C 343.554 54.818,329.498 48.540,320.390 56.769 C 311.623 64.689,317.211 78.733,329.419 79.463 L 332.838 79.667 335.292 82.611 C 343.333 92.263,347.030 97.475,353.455 108.222 C 367.285 131.352,378.171 167.548,378.217 190.556 L 378.222 192.889 352.506 192.889 L 326.789 192.889 326.483 189.444 C 322.804 148.025,300.904 112.007,265.556 89.239 C 224.031 62.493,167.863 62.576,126.061 89.446 C 105.755 102.499,91.498 118.005,79.688 139.881 L 77.713 143.540 76.079 142.834 C 75.180 142.446,73.444 141.730,72.222 141.245 C 65.902 138.734,61.079 136.722,60.814 136.487 C 59.281 135.122,73.660 112.670,83.375 101.259 C 92.552 90.480,112.133 74.553,122.464 69.466 C 123.431 68.989,126.522 67.385,129.333 65.899 C 132.144 64.414,134.944 63.054,135.556 62.877 C 136.167 62.700,138.667 61.708,141.111 60.672 C 148.579 57.507,160.809 54.085,171.111 52.277 C 197.229 47.695,227.552 51.030,251.945 61.168 C 254.053 62.044,256.701 63.133,257.829 63.589 C 284.092 74.199,312.632 101.080,328.237 129.903 L 329.628 132.473 328.500 134.751 C 323.346 145.167,335.444 157.505,345.883 152.477 C 358.143 146.572,355.981 130.203,342.444 126.445 C 342.200 126.377,340.622 123.850,338.937 120.828 C 323.408 92.969,297.816 68.166,270.667 54.662 C 267.611 53.142,265.067 51.861,265.013 51.815 C 264.818 51.647,267.962 43.642,270.438 38.000 C 271.833 34.822,273.277 31.329,273.648 30.238 C 274.019 29.147,274.987 26.747,275.799 24.906 C 276.859 22.502,277.126 21.475,276.745 21.262 C 257.029 10.228,213.779 2.133,184.667 4.028 " stroke="none" fill="#000000" fill-rule="evenodd"></path></g></svg>